<?xml version="1.0" encoding="utf-8"?>
<!-- Generator: Adobe Illustrator 19.0.1, SVG Export Plug-In . SVG Version: 6.00 Build 0)  -->
<svg version="1.1" id="Layer_1" xmlns="http://www.w3.org/2000/svg" xmlns:xlink="http://www.w3.org/1999/xlink" x="0px" y="0px"
	 viewBox="0 0 564.2 162.5" style="enable-background:new 0 0 564.2 162.5;" xml:space="preserve">
<style type="text/css">
	.st0{fill:#FFFFFF;}
</style>
<g>
	<path class="st0" d="M251.3,118.4c-17.9,0.1-32.5-14.2-32.8-32.1c-0.3-17.9,14.9-33.1,33-33c17.4,0.1,32,14.7,32.2,32.2
		C283.9,103.6,269.4,118.3,251.3,118.4z"/>
	<g>
		<path class="st0" d="M102.2,139.1c2.4,3.3,3.6,6.7,3.6,10.3c0,3.5-1.2,6.5-3.6,8.8c-2.4,2.3-5.5,3.5-9.3,3.5c-2.4,0-5.2-0.7-8.3-2
			c-5.5-4-11.7-8.5-18.6-13.6c-6.9-5.1-13.8-10.3-20.9-15.6c-7.1-5.3-14-10.6-20.9-15.7c-6.9-5.2-13.2-9.8-18.9-13.8
			C1.9,97.5,0.1,93.8,0.1,90c0-4.4,2.1-8.3,6.3-11.6c1.1-0.9,3.6-2.9,7.5-6c3.9-3.1,8.6-6.7,14.1-10.9c5.5-4.2,11.3-8.7,17.4-13.6
			c6.1-4.9,11.9-9.4,17.4-13.6C68.3,30.2,73,26.5,77,23.3c4-3.2,6.4-5.1,7.3-5.8c2.9-1.1,5.3-1.7,7.3-1.7c3.8,0,6.8,1.2,9.3,3.6
			c2.4,2.4,3.6,5.4,3.6,9c0,3.8-1.4,7.4-4.3,10.9c-3.8,3.1-8.5,6.9-14.3,11.3c-5.7,4.4-11.7,9.1-17.9,13.9
			c-6.2,4.9-12.2,9.5-17.9,13.9c-5.7,4.4-10.5,8.2-14.3,11.3c4.4,3.3,9.6,7.1,15.4,11.4c5.9,4.3,11.8,8.7,17.7,13.3
			c6,4.5,11.9,9,17.7,13.3C92.6,132,97.8,135.8,102.2,139.1z"/>
	</g>
	<g>
		<path class="st0" d="M462.1,139.1c4.4-3.3,9.6-7.1,15.4-11.4c5.9-4.3,11.8-8.7,17.7-13.3c6-4.5,11.9-9,17.7-13.3
			c5.9-4.3,11-8.1,15.4-11.4c-3.8-3.1-8.5-6.8-14.3-11.3c-5.8-4.4-11.7-9.1-17.9-13.9C490,59.7,484,55,478.3,50.6
			c-5.8-4.4-10.5-8.2-14.3-11.3c-2.9-3.5-4.3-7.2-4.3-10.9c0-3.5,1.2-6.5,3.6-9c2.4-2.4,5.5-3.6,9.3-3.6c2,0,4.4,0.6,7.3,1.7
			c1.1,0.7,3.6,2.6,7.5,5.8c3.9,3.2,8.6,6.9,14.1,11.1c5.5,4.2,11.3,8.7,17.4,13.6c6.1,4.9,11.9,9.4,17.4,13.6
			c5.5,4.2,10.2,7.8,14.1,10.9c3.9,3.1,6.3,5.1,7.5,6c4.2,3.3,6.3,7.2,6.3,11.6c0,3.8-1.8,7.4-5.3,10.9c-5.5,4-11.8,8.6-18.7,13.8
			c-7,5.2-14,10.4-21,15.7c-7.1,5.3-14,10.5-20.9,15.6c-6.9,5.1-13,9.6-18.6,13.6c-2.9,1.3-5.6,2-8.3,2c-3.8,0-6.9-1.2-9.3-3.5
			c-2.4-2.3-3.6-5.2-3.6-8.8C458.4,145.9,459.6,142.4,462.1,139.1z"/>
	</g>
	<g>
		<path class="st0" d="M421.7,24c1-2.5,2.7-4.5,4.9-5.9c2.2-1.4,4.6-2.3,7.1-2.6c2.5-0.3,4.9,0,7.1,1c2.2,1,3.8,2.6,4.8,4.9
			c0.5,1.2,0.6,2.7,0.4,4.5c-0.2,1.8-0.5,3.6-1,5.5c-0.4,1.9-0.9,3.6-1.5,5.2c-0.6,1.6-0.9,2.7-1,3.3c-1,4.2-2,8.4-3,12.6
			c-1,4.2-2,8.4-3,12.6c-3.6,14.8-7.1,29.6-10.6,44.2c-3.5,14.7-7.2,29.3-10.9,44c-0.6,2.2-1.9,4-4,5.4c-2.1,1.4-4.5,2.3-7.1,2.6
			c-2.6,0.3-5.1,0-7.4-0.9c-2.3-0.9-4-2.5-5-4.9c-1.1-2.7-1.1-5.5-0.2-8.2c0.9-2.7,1.7-5.7,2.4-8.8c1-4.2,2-8.4,3-12.6
			c1-4.2,2-8.4,3-12.6c0.3-1.1,0.7-2.8,1.3-5.1c0.6-2.3,1.2-4.8,1.9-7.6c0.7-2.8,1.4-5.6,2.1-8.6c0.7-3,1.4-5.6,2-8.1
			c0.6-2.4,1.3-5.3,2-8.5c2.1-8.5,4.2-16.9,6.2-25.3c2-8.4,4-16.7,6.1-25.1L421.7,24z"/>
	</g>
	<path class="st0" d="M372.5,32.4c0-13.4-7.2-20.4-20.8-20.4c-49,0-98,0-146.9,0c-1.9,0-3.8,0-6.4,0c0-4.1,0-8.1,0-12h-39.9
		c0,3.9,0,7.9,0,12c-3.2,0-5.7,0-8.2,0c-15,0-21.9,6.9-21.9,22c0,35,0,70,0,104.9c0,15.4,6.8,22.1,22.3,22.1c67.1,0,134.3,0,201.4,0
		c13.4,0,20.5-7,20.5-20.2C372.5,104.7,372.5,68.6,372.5,32.4z M250.2,147c-33.2-0.1-60.2-27.7-60.1-61.3
		c0.2-33.9,27.3-60.8,61.2-60.7c34,0.1,61.1,27.5,60.9,61.6C311.9,120.3,284.5,147.1,250.2,147z"/>
</g>
</svg>
